P1
# CREATOR: GIMP PNM Filter Version 1.1
128 64
1111111111111111111110000101010111111111111111111111111111111111111111
1111111111111111111111111111111111111111111111111111111111111111111111
1111111110101001010111111111111111111111111111111111111111111111111111
1111111111111111111111111111111111111111111111111111111111111111110111
1101011011111111111111111111111111111111111111111111111111111111111111
1111111111111111111111111111111111111111111111111111110010111100101011
1111111111111111111111111111111111111111111111111111111111111111111111
1111111111111111111111111111111111111111110111010111010111111111111111
1111111111111111111111111111111111111111111111111111111111111111111111
1111111111111111111111111111111010111110100010111111111111111111111111
1111111111111111111111111111111111111111111111111111111111111111111111
1111111111111111110111010111101000001011111111111111111111111111111111
1111111111111111111111111111111111111111111111111111111111111111111111
1111110011011101111001000001111111111111111111111111111111111111111111
1111111111111111111111111111111111111111111111111111111111111111110110
1011101100101010011111111111111111111111111111111111111111111111111111
1111111111111111111111111111111111111111111111111111010110110111111010
0010100000111111111111111111111111111111111111111111111111000111111100
0111000110111011111111111111111111111111101101101101110001010010000000
0001111111111111111111111111111111111111111111101111111011101011101001
1011111111111111111111111111010101101101111100010010101010010000111111
1111111111111111111111111111111111101111111011111011101010101111111111
1111111111111111101110110111101010101010000001001000000101111111111111
1111111111111111111111101111111011111000001011001111111111111111111111
1111010110111111101101010101010100100100100000111111111111111111111111
1111111111101111111011111011101011101111111111111111111111111110110110
1010111011011010101010010010010100001111111111111111111111111111111110
1111111011101011101011101111111111111111111111111111011111111010110110
1010101010101010010111000011111111111111111111111111111100011111110001
1011101011101111111111111111111111111100101010101101010101010101010101
0101010100101000000010000001011111111111111111111111111111111111111111
1111111111111111111111111110011011010101011010101010101010101010010100
1010001010111101001111111111111111111111111111111111111111111111111111
1111111111111010101101010101010110101010110101010101101010001011111110
1100110111111111111111111111111111111111111111111111111111111111111111
1100010101010101001011010101010101011101010101111111110111011100111111
1111111111111111111111111111111111111111111111111111111111101010101101
1010101100110101010111010110110111011101011101111011011111111111111111
1111111111111111111111111111111111111111111111001000101010101010011010
1011010101110110111011111111101101011110111111111111111111111110111011
0001100000111111111111111111111110100110101010101001100101101011101010
1101101110111010110111110101111111111111111111111110111010111011111011
1111111111111111111110000101010100101100110010101010110110110111011011
1110110101111101111111111111111111111110000010111011110111111111111111
1111111000101010101011101010100101101010101111011010111111101101111111
1011111111111111111111111110111010000011101111111111111111111111010000
0011010111110101010101011010101011101111101101111101010111101111111111
1111111111111110111010111011011111111111111111111111000101010101010101
1101010101010101011100101010111111111111111111111111111111111111111111
1110111010111010111111111111111111111111000010010101010101111001010101
0101001101011011010101101010101101111111111111111111111111111011101011
1010000011111111111111111110000001000100101011101100101101010101010110
1101101111111111111111011111111111111111111111111111111111111111111111
1111111111111111100100010100110111110101010101010110101010110111011011
1111110111011111111111111111111111111111111111111111111111111111111111
1110001001010001001111101001010110101010101110101101101110111101110011
1111111111111111111111111111111111111111111111111111111111111000010001
0100100011111100010101011010110101101101110111111110111001111111111111
1111111111111111111111111111111111111111111111111100100100101001010000
1010001010100101111110101011011110111111100101111111111111111111111111
1111111111111111111111111111111111111000100010010100000010100100000101
0011011111101101110111111101110101111111111111111111110001101111100000
1000011111111111111111110000001001001010100000000010100000111101111111
0111011101011110100101111111111111111111101110101111101111101110111111
1111111111111001000100101000101001010010010100001110110011101110111111
0101100101111111111111111111101110101111100011101110111111111111111111
0000010001000101000100010101000001111011101101111011101010101001001111
1111111111111111101110101111101111101110111111111111111111101000010011
0101010000100000101001011011111101011110111011101100100111111111111111
1111101110101111101111101110111111111111111111100010100100100100010100
1001001010010101110111101101101010100010010111111111111111111110111010
1111101111101110111111111111111111100000010010010010000100010001010100
0001010101101101101100111010010111111111111111111111000110000010000010
0001111111111111111111101010101000101001000011110100110011000000110101
0110110101001000011011111111111111111111111111111111111111111111111111
1111111111100001010110010100101001111101010000101010010001010101010101
0110001011111111111111111111111111111111111111111111111111111111111110
0100101001010010000011111111100100010010101010101011101010100100011111
1111111111111111111111111111111111111111111111111111111111001010110100
1001010000110100100010001010101010101010110101010010000101111111111111
1111111111111111111111111111111111111111111110000111010110010000101110
1001001001100101010110101010101010100100101101111111111111111111111111
1111111111111111111111111111111111010001110111010101000110000000010010
1010101010101010111001010000100101111111111111111111111111111111111100
0111111111111111111111001111111011101001011110101011010101010101011010
1011010100101010100101101111111111111111111111111111111011101111111111
1111111111000010101101111101010110101000010101010101001010100101011010
1000100100101111111111111111111111111111111111101111111111111111111110
0111011111101111111111010010101010101010110101011010101000010101001011
0111111111111111111111111111111111011111111111111111111111001011010111
0111110111101010101101001010010101000101110101000101001000111111111111
1111111111111111111110111111111111111111111111000101111011111011111101
0101010110100101101010110101010101010100100110101111111111111111111111
1111111111111111111111111111111111100100101101011001101111110101000110
1010101101010101101010010110010001010111111111111111111111111111111011
1111111111111111111111100101011011011000111101110110111010111011011010
0101010100101010101010101011111111111111111111111111111111111111111111
1111111111100101010101101110010100111111011111101110101110101010101001
0101001001010101111111111111111111111111111111111111111111111111111111
0010101110101010001001111111110101110111010011010101000010101010010101
0101111111111111111111111111111111111111111111111111111111001010101010
1111110101110101011110110101111001010101101010101010100101010111111111
1111111111111111111111111111111111111111111110000101011010101101111101
1111101111101111011101010100010110110101010010101011111111111111111111
1111111111111111111111111111111110100001101011000110101111101011011111
1011101101010110100010101010010100101001111111111111111111111111111111
1111111111111111111100010010111010101001110101011110101111111101101101
0010011101010101010010101010111111111111111111111111111111111111111111
1111111110010000101111010100101101101011101101101110110101101001011101
1010101010101010111111111111111111111111111111111111111111111111110000
1010011011101011010110110101011111011011101010010010110110101001010010
1010101111111111111111111111111111111111111111111111111010000100101011
0101010011010110101011011101101011001010110110110101010101101010111111
1111111111111111111111111111111111111111100001010011101101101110111011
0101011010110101010100101101111011010101010010101101101111111111111111
1111111111111111111111111111101000101000110101111011101111111110111101
1101010100101101011011010100101001010101011111111111111111111111111111
11